<svg version="1.2" xmlns="http://www.w3.org/2000/svg" viewBox="0 0 59 20" width="59" height="20">
	<title>image</title>
	<style>
		.s0 { fill: #000000 } 
	</style>
	<g id="Layer">
		<g id="Layer">
			<g id="youtube-paths">
				<path id="Layer" class="s0" d="m3.6 13l-3.2-11.6h2.8l1.1 5.3q0.4 1.9 0.7 3.3 0.2-1 0.7-3.3l1.1-5.3h2.8l-3.2 11.6v5.6h-2.8v-5.6z"/>
				<path id="Layer" fill-rule="evenodd" class="s0" d="m10.5 18.2q-0.9-0.6-1.2-1.8-0.4-1.2-0.4-3.2v-1.8q0-2 0.4-3.3 0.4-1.2 1.3-1.7 0.9-0.6 2.3-0.6 1.4 0 2.2 0.6 0.8 0.5 1.2 1.8 0.4 1.2 0.4 3.2v1.8q0 2-0.4 3.2-0.3 1.2-1.2 1.8-0.8 0.6-2.3 0.6-1.5 0-2.3-0.6zm3.1-2q0.3-0.6 0.3-2v-3.9q0-1.3-0.3-1.9-0.2-0.7-0.8-0.7-0.6 0-0.8 0.7-0.2 0.6-0.2 1.9v3.9q0 1.4 0.2 2 0.2 0.6 0.8 0.6 0.6 0 0.8-0.6z"/>
				<path id="Layer" class="s0" d="m25.8 18.6h-2.2l-0.2-1.6h-0.1q-0.9 1.8-2.7 1.8-1.2 0-1.8-0.9-0.6-0.8-0.6-2.5v-9.4h2.8v9.2q0 0.9 0.2 1.2 0.2 0.4 0.6 0.4 0.4 0 0.7-0.2 0.3-0.3 0.5-0.6v-10h2.8z"/>
				<path id="Layer" class="s0" d="m33.5 3.7h-2.8v14.9h-2.8v-14.9h-2.8v-2.3h8.4z"/>
				<path id="Layer" class="s0" d="m40.3 18.6h-2.2l-0.3-1.6q-0.9 1.8-2.7 1.8-1.3 0-1.9-0.9-0.6-0.8-0.6-2.5v-9.4h2.9v9.2q0 0.9 0.1 1.2 0.2 0.4 0.7 0.4 0.3 0 0.7-0.2 0.3-0.3 0.5-0.6v-10h2.8z"/>
				<path id="Layer" fill-rule="evenodd" class="s0" d="m49.9 11.3v2q0 2.8-0.7 4.1-0.7 1.3-2.1 1.3-0.8 0-1.5-0.3-0.6-0.4-0.9-1h-0.1l-0.3 1.2h-2.3v-17.8h2.7v6.6q0.4-0.7 1.1-1.2 0.6-0.4 1.4-0.4 1 0 1.6 0.5 0.6 0.6 0.8 1.7 0.3 1.2 0.3 3.3zm-2.9 1.8v-1.6q0-1.4-0.1-2.2-0.1-0.8-0.3-1.2-0.2-0.3-0.7-0.3-0.4 0-0.7 0.3-0.4 0.4-0.5 0.9v7.1q0.2 0.3 0.5 0.5 0.3 0.1 0.6 0.1 0.5 0 0.7-0.3 0.3-0.3 0.4-1.1 0.1-0.8 0.1-2.2z"/>
				<path id="Layer" fill-rule="evenodd" class="s0" d="m53.9 13.9q0 1.2 0 1.8 0.1 0.6 0.3 0.9 0.3 0.2 0.7 0.2 0.7 0 0.9-0.5 0.2-0.4 0.3-1.6l2.4 0.2q0 0.1 0 0.4 0 1.7-0.9 2.6-1 0.9-2.7 0.9-2.1 0-3-1.4-0.8-1.3-0.8-4v-2.2q0-2.8 0.9-4.1 0.8-1.3 2.9-1.3 1.5 0 2.3 0.5 0.8 0.6 1.1 1.7 0.3 1.1 0.3 3.1v2.1h-4.7zm0.3-5.9q-0.2 0.3-0.3 0.9 0 0.6 0 1.8v0.9h2v-0.9q0-1.2-0.1-1.8 0-0.6-0.3-0.9-0.2-0.2-0.6-0.2-0.5 0-0.7 0.2z"/>
			</g>
		</g>
	</g>
</svg>