<svg version="1.2" xmlns="http://www.w3.org/2000/svg" viewBox="0 0 29 20" width="29" height="20">
	<title>image</title>
	<style>
		.s0 { fill: #ff0000 } 
		.s1 { fill: #ffffff } 
	</style>
	<g id="Layer">
		<g id="Layer">
			<path id="Layer" class="s0" d="m28.6 10c0 0 0 4.6-0.6 6.9-0.4 1.2-1.3 2.2-2.6 2.5-2.2 0.6-11.1 0.6-11.1 0.6 0 0-8.9 0-11.2-0.6-1.2-0.3-2.2-1.3-2.5-2.5-0.6-2.3-0.6-6.9-0.6-6.9 0 0 0-4.6 0.6-6.9 0.3-1.2 1.3-2.2 2.5-2.5 2.3-0.6 11.2-0.6 11.2-0.6 0 0 8.9 0 11.1 0.6 1.3 0.3 2.2 1.3 2.6 2.5 0.6 2.3 0.6 6.9 0.6 6.9z"/>
			<path id="Layer" class="s1" d="m11.4 5.7l7.4 4.3-7.4 4.3z"/>
		</g>
	</g>
</svg>